<svg xmlns="http://www.w3.org/2000/svg" xmlns:xlink="http://www.w3.org/1999/xlink" width="1920" zoomAndPan="magnify" viewBox="0 0 1440 809.999993" height="1080" preserveAspectRatio="xMidYMid meet" version="1.0"><defs><filter x="0%" y="0%" width="100%" height="100%" id="f4a79c8484"><feColorMatrix values="0 0 0 0 1 0 0 0 0 1 0 0 0 0 1 0 0 0 1 0" color-interpolation-filters="sRGB"/></filter><g/><mask id="5809a8afa1"><g filter="url(#f4a79c8484)"><rect x="-144" width="1728" fill="#000000" y="-80.999999" height="971.999992" fill-opacity="0.56"/></g></mask><clipPath id="6434069211"><path d="M 0 91.925781 L 418.976562 91.925781 L 418.976562 729.640625 L 0 729.640625 Z M 0 91.925781 " clip-rule="nonzero"/></clipPath><clipPath id="bcd419843b"><path d="M 0 184 L 276 184 L 276 646 L 0 646 Z M 0 184 " clip-rule="nonzero"/></clipPath><clipPath id="7454590d83"><path d="M 0 123.527344 L 386.976562 123.527344 L 386.976562 697.640625 L 0 697.640625 Z M 0 123.527344 " clip-rule="nonzero"/></clipPath><clipPath id="debf79dab6"><rect x="0" width="421" y="0" height="810"/></clipPath></defs><g mask="url(#5809a8afa1)"><g transform="matrix(1, 0, 0, 1, 0, 0.000000000000039746)"><g clip-path="url(#debf79dab6)"><g clip-path="url(#6434069211)"><path fill="#f6f6f5" d="M 100.066406 729.539062 C -76.0625 729.539062 -218.738281 585.878906 -218.738281 410.730469 C -218.738281 235.585938 -76.0625 91.925781 100.066406 91.925781 C 276.199219 91.925781 418.875 234.601562 418.875 410.730469 C 418.875 586.863281 275.214844 729.539062 100.066406 729.539062 Z M 100.066406 111.605469 C -65.238281 111.605469 -199.058594 245.425781 -199.058594 410.730469 C -199.058594 576.039062 -65.238281 709.859375 100.066406 709.859375 C 265.375 709.859375 399.195312 576.039062 399.195312 410.730469 C 399.195312 245.425781 264.390625 111.605469 100.066406 111.605469 Z M 100.066406 111.605469 " fill-opacity="1" fill-rule="nonzero"/></g><g clip-path="url(#bcd419843b)"><g fill="#f6f6f5" fill-opacity="1"><g transform="translate(-108.600063, 635.978922)"><g><path d="M 204.5625 9.921875 C 315.53125 9.921875 384.328125 -44.015625 384.328125 -129.5625 C 384.328125 -184.109375 352.71875 -225.640625 300.03125 -241.75 L 300.03125 -244.234375 C 335.984375 -256.640625 362.640625 -292.59375 362.640625 -336.59375 C 362.640625 -406.640625 303.75 -451.28125 204.5625 -451.28125 C 105.375 -451.28125 46.484375 -406.640625 46.484375 -336.59375 C 46.484375 -295.0625 73.140625 -259.734375 109.09375 -244.234375 L 109.09375 -241.75 C 56.40625 -225.640625 24.796875 -184.109375 24.796875 -129.5625 C 24.796875 -44.015625 93.609375 9.921875 204.5625 9.921875 Z M 204.5625 -267.796875 C 159.9375 -267.796875 132.03125 -289.484375 132.03125 -324.828125 C 132.03125 -360.15625 158.6875 -380.609375 204.5625 -380.609375 C 250.4375 -380.609375 277.09375 -360.15625 277.09375 -324.828125 C 277.09375 -289.484375 249.203125 -267.796875 204.5625 -267.796875 Z M 204.5625 -61.375 C 150.640625 -61.375 116.546875 -88.640625 116.546875 -131.421875 C 116.546875 -175.421875 149.390625 -201.46875 204.5625 -201.46875 C 259.734375 -201.46875 292.59375 -175.421875 292.59375 -131.421875 C 292.59375 -88.640625 258.5 -61.375 204.5625 -61.375 Z M 204.5625 -61.375 "/></g></g></g></g><g clip-path="url(#7454590d83)"><path fill="#f6f6f5" d="M 100.066406 697.929688 C -58.605469 697.929688 -187.136719 568.511719 -187.136719 410.730469 C -187.136719 252.945312 -58.605469 123.527344 100.066406 123.527344 C 258.734375 123.527344 387.265625 252.058594 387.265625 410.730469 C 387.265625 569.398438 257.847656 697.929688 100.066406 697.929688 Z M 100.066406 141.257812 C -48.855469 141.257812 -169.40625 261.808594 -169.40625 410.730469 C -169.40625 559.648438 -48.855469 680.199219 100.066406 680.199219 C 248.984375 680.199219 369.535156 559.648438 369.535156 410.730469 C 369.535156 261.808594 248.097656 141.257812 100.066406 141.257812 Z M 100.066406 141.257812 " fill-opacity="1" fill-rule="nonzero"/></g></g></g></g></svg>