<svg xmlns="http://www.w3.org/2000/svg" xmlns:xlink="http://www.w3.org/1999/xlink" width="50" zoomAndPan="magnify" viewBox="0 0 37.5 37.499999" height="50" preserveAspectRatio="xMidYMid meet" version="1.0"><defs><clipPath id="b53f0be811"><path d="M 4.957031 4.957031 L 32.34375 4.957031 L 32.34375 32.34375 L 4.957031 32.34375 Z M 4.957031 4.957031 " clip-rule="nonzero"/></clipPath></defs><g clip-path="url(#b53f0be811)"><path fill="#666666" d="M 32.042969 18.5 C 32.042969 25.980469 25.980469 32.042969 18.5 32.042969 C 11.023438 32.042969 4.957031 25.980469 4.957031 18.5 C 4.957031 11.023438 11.023438 4.957031 18.5 4.957031 C 25.980469 4.957031 32.042969 11.023438 32.042969 18.5 " fill-opacity="1" fill-rule="nonzero"/></g><path fill="#ee7f1d" d="M 19.21875 20.121094 C 18.703125 20.6875 18.027344 21.011719 17.367188 21.011719 C 16.195312 21.011719 15.4375 20.234375 15.4375 19.03125 C 15.4375 18.226562 15.730469 17.472656 16.265625 16.898438 C 16.773438 16.359375 17.441406 16.046875 18.105469 16.046875 C 19.222656 16.046875 20.035156 16.894531 20.035156 18.066406 C 20.035156 18.800781 19.738281 19.550781 19.21875 20.121094 Z M 24.136719 12.660156 C 22.566406 11.203125 20.488281 10.398438 18.285156 10.398438 C 16.050781 10.398438 13.960938 11.269531 12.394531 12.851562 C 10.84375 14.417969 9.988281 16.492188 9.988281 18.695312 C 9.988281 23.328125 13.691406 26.957031 18.425781 26.957031 C 20.15625 26.957031 21.738281 26.527344 23.257812 25.644531 L 23.328125 25.605469 L 23.394531 25.539062 C 23.480469 25.457031 23.707031 25.238281 23.707031 24.863281 C 23.707031 24.375 23.300781 23.960938 22.824219 23.960938 C 22.707031 23.960938 22.519531 23.988281 22.371094 24.0625 L 22.335938 24.078125 C 21.070312 24.808594 19.902344 25.117188 18.425781 25.117188 C 16.582031 25.117188 14.902344 24.453125 13.695312 23.246094 C 12.511719 22.058594 11.859375 20.445312 11.859375 18.695312 C 11.859375 16.957031 12.511719 15.339844 13.695312 14.128906 C 14.890625 12.910156 16.519531 12.234375 18.285156 12.234375 C 20.015625 12.234375 21.644531 12.871094 22.867188 14.027344 C 24.015625 15.113281 24.671875 16.546875 24.671875 17.960938 C 24.671875 18.96875 24.453125 19.785156 24.042969 20.316406 C 23.726562 20.722656 23.300781 20.949219 22.839844 20.949219 C 22.238281 20.949219 21.972656 20.703125 21.972656 20.148438 C 21.972656 19.988281 22.007812 19.625 22.085938 19.1875 L 22.714844 15.648438 C 22.78125 15.269531 22.683594 14.894531 22.445312 14.613281 C 22.21875 14.339844 21.882812 14.183594 21.527344 14.183594 C 21.0625 14.183594 20.675781 14.425781 20.460938 14.828125 C 19.847656 14.332031 19.09375 14.078125 18.214844 14.078125 C 17.066406 14.078125 15.898438 14.601562 15.003906 15.511719 C 14.0625 16.472656 13.542969 17.734375 13.542969 19.0625 C 13.542969 20.144531 13.941406 21.125 14.65625 21.824219 C 15.347656 22.5 16.289062 22.875 17.300781 22.875 C 18.34375 22.875 19.253906 22.519531 20.070312 21.792969 C 20.648438 22.492188 21.550781 22.875 22.648438 22.875 C 23.6875 22.875 24.652344 22.433594 25.355469 21.632812 C 26.132812 20.75 26.546875 19.480469 26.546875 17.960938 C 26.546875 16.015625 25.667969 14.085938 24.136719 12.660156 " fill-opacity="1" fill-rule="nonzero"/></svg>