<svg xmlns="http://www.w3.org/2000/svg" xmlns:xlink="http://www.w3.org/1999/xlink" width="50" zoomAndPan="magnify" viewBox="0 0 37.5 37.499999" height="50" preserveAspectRatio="xMidYMid meet" version="1.0"><defs><clipPath id="358e68065e"><path d="M 0 0 L 37.007812 0 L 37.007812 37.007812 L 0 37.007812 Z M 0 0 " clip-rule="nonzero"/></clipPath></defs><g clip-path="url(#358e68065e)"><path fill="#ffffff" d="M 0 0 L 37.007812 0 L 37.007812 37.007812 L 0 37.007812 Z M 0 0 " fill-opacity="1" fill-rule="nonzero"/></g><path stroke-linecap="butt" transform="matrix(0.755236, 0, 0, 0.755236, 0.0000005, 0)" fill-opacity="1" fill="#ffffff" fill-rule="nonzero" stroke-linejoin="miter" d="M 2.001649 2.498184 L 8.999667 2.498184 M 9.997906 2.498184 L 14.001206 2.498184 M 14.999445 2.498184 L 17.001095 2.498184 M 17.999334 2.498184 L 18.997573 2.498184 M 20.999223 2.498184 L 21.997462 2.498184 M 25.002523 2.498184 L 26.000762 2.498184 M 28.002412 2.498184 L 29.000651 2.498184 M 29.99889 2.498184 L 32.998779 2.498184 M 35.00043 2.498184 L 35.998669 2.498184 M 38.000319 2.498184 L 38.998558 2.498184 M 40.001969 2.498184 L 46.999986 2.498184 M 2.001649 3.501595 L 2.999888 3.501595 M 8.001428 3.501595 L 8.999667 3.501595 M 11.001317 3.501595 L 12.997795 3.501595 M 15.997684 3.501595 L 17.001095 3.501595 M 17.999334 3.501595 L 18.997573 3.501595 M 21.997462 3.501595 L 23.999112 3.501595 M 26.000762 3.501595 L 29.000651 3.501595 M 29.99889 3.501595 L 32.000541 3.501595 M 32.998779 3.501595 L 35.00043 3.501595 M 37.00208 3.501595 L 38.000319 3.501595 M 40.001969 3.501595 L 41.000208 3.501595 M 46.001747 3.501595 L 46.999986 3.501595 M 2.001649 4.499834 L 2.999888 4.499834 M 3.998127 4.499834 L 6.998017 4.499834 M 8.001428 4.499834 L 8.999667 4.499834 M 11.999556 4.499834 L 14.001206 4.499834 M 14.999445 4.499834 L 17.001095 4.499834 M 18.997573 4.499834 L 21.997462 4.499834 M 23.000873 4.499834 L 23.999112 4.499834 M 25.002523 4.499834 L 29.99889 4.499834 M 31.002302 4.499834 L 34.002191 4.499834 M 37.00208 4.499834 L 38.000319 4.499834 M 40.001969 4.499834 L 41.000208 4.499834 M 41.998447 4.499834 L 44.998336 4.499834 M 46.001747 4.499834 L 46.999986 4.499834 M 2.001649 5.498073 L 2.999888 5.498073 M 3.998127 5.498073 L 6.998017 5.498073 M 8.001428 5.498073 L 8.999667 5.498073 M 9.997906 5.498073 L 11.001317 5.498073 M 11.999556 5.498073 L 12.997795 5.498073 M 14.001206 5.498073 L 14.999445 5.498073 M 15.997684 5.498073 L 17.001095 5.498073 M 17.999334 5.498073 L 18.997573 5.498073 M 20.000984 5.498073 L 20.999223 5.498073 M 21.997462 5.498073 L 23.000873 5.498073 M 23.999112 5.498073 L 25.002523 5.498073 M 26.000762 5.498073 L 26.999001 5.498073 M 28.002412 5.498073 L 29.000651 5.498073 M 29.99889 5.498073 L 31.002302 5.498073 M 32.998779 5.498073 L 35.00043 5.498073 M 37.00208 5.498073 L 38.998558 5.498073 M 40.001969 5.498073 L 41.000208 5.498073 M 41.998447 5.498073 L 44.998336 5.498073 M 46.001747 5.498073 L 46.999986 5.498073 M 2.001649 6.501484 L 2.999888 6.501484 M 3.998127 6.501484 L 6.998017 6.501484 M 8.001428 6.501484 L 8.999667 6.501484 M 9.997906 6.501484 L 11.999556 6.501484 M 12.997795 6.501484 L 14.999445 6.501484 M 17.999334 6.501484 L 18.997573 6.501484 M 20.000984 6.501484 L 20.999223 6.501484 M 21.997462 6.501484 L 26.999001 6.501484 M 32.000541 6.501484 L 34.002191 6.501484 M 35.998669 6.501484 L 38.998558 6.501484 M 40.001969 6.501484 L 41.000208 6.501484 M 41.998447 6.501484 L 44.998336 6.501484 M 46.001747 6.501484 L 46.999986 6.501484 M 2.001649 7.499723 L 2.999888 7.499723 M 8.001428 7.499723 L 8.999667 7.499723 M 9.997906 7.499723 L 11.001317 7.499723 M 14.001206 7.499723 L 14.999445 7.499723 M 17.001095 7.499723 L 17.999334 7.499723 M 20.000984 7.499723 L 23.000873 7.499723 M 26.000762 7.499723 L 32.000541 7.499723 M 32.998779 7.499723 L 35.00043 7.499723 M 40.001969 7.499723 L 41.000208 7.499723 M 46.001747 7.499723 L 46.999986 7.499723 M 2.001649 8.497962 L 8.999667 8.497962 M 9.997906 8.497962 L 11.001317 8.497962 M 11.999556 8.497962 L 12.997795 8.497962 M 14.001206 8.497962 L 14.999445 8.497962 M 15.997684 8.497962 L 17.001095 8.497962 M 17.999334 8.497962 L 18.997573 8.497962 M 20.000984 8.497962 L 20.999223 8.497962 M 21.997462 8.497962 L 23.000873 8.497962 M 23.999112 8.497962 L 25.002523 8.497962 M 26.000762 8.497962 L 26.999001 8.497962 M 28.002412 8.497962 L 29.000651 8.497962 M 29.99889 8.497962 L 31.002302 8.497962 M 32.000541 8.497962 L 32.998779 8.497962 M 34.002191 8.497962 L 35.00043 8.497962 M 35.998669 8.497962 L 37.00208 8.497962 M 38.000319 8.497962 L 38.998558 8.497962 M 40.001969 8.497962 L 46.999986 8.497962 M 9.997906 9.501373 L 11.001317 9.501373 M 11.999556 9.501373 L 12.997795 9.501373 M 14.999445 9.501373 L 15.997684 9.501373 M 17.999334 9.501373 L 18.997573 9.501373 M 21.997462 9.501373 L 23.000873 9.501373 M 26.000762 9.501373 L 29.99889 9.501373 M 31.002302 9.501373 L 32.998779 9.501373 M 35.00043 9.501373 L 38.998558 9.501373 M 2.001649 10.499612 L 2.999888 10.499612 M 5.999778 10.499612 L 6.998017 10.499612 M 8.001428 10.499612 L 12.997795 10.499612 M 17.001095 10.499612 L 17.999334 10.499612 M 20.000984 10.499612 L 20.999223 10.499612 M 21.997462 10.499612 L 26.999001 10.499612 M 29.000651 10.499612 L 29.99889 10.499612 M 32.000541 10.499612 L 35.998669 10.499612 M 38.998558 10.499612 L 44.000097 10.499612 M 46.001747 10.499612 L 46.999986 10.499612 M 3.998127 11.497851 L 5.001539 11.497851 M 5.999778 11.497851 L 6.998017 11.497851 M 9.997906 11.497851 L 11.999556 11.497851 M 12.997795 11.497851 L 14.001206 11.497851 M 14.999445 11.497851 L 15.997684 11.497851 M 17.999334 11.497851 L 23.000873 11.497851 M 23.999112 11.497851 L 25.002523 11.497851 M 26.000762 11.497851 L 26.999001 11.497851 M 28.002412 11.497851 L 29.000651 11.497851 M 31.002302 11.497851 L 35.998669 11.497851 M 40.001969 11.497851 L 41.000208 11.497851 M 43.001858 11.497851 L 46.001747 11.497851 M 2.001649 12.501262 L 2.999888 12.501262 M 6.998017 12.501262 L 9.997906 12.501262 M 11.001317 12.501262 L 11.999556 12.501262 M 14.001206 12.501262 L 17.001095 12.501262 M 17.999334 12.501262 L 20.999223 12.501262 M 23.000873 12.501262 L 23.999112 12.501262 M 26.000762 12.501262 L 26.999001 12.501262 M 28.002412 12.501262 L 29.000651 12.501262 M 31.002302 12.501262 L 32.000541 12.501262 M 35.00043 12.501262 L 35.998669 12.501262 M 37.00208 12.501262 L 38.000319 12.501262 M 40.001969 12.501262 L 41.000208 12.501262 M 41.998447 12.501262 L 44.000097 12.501262 M 44.998336 12.501262 L 46.001747 12.501262 M 5.001539 13.499501 L 5.999778 13.499501 M 8.999667 13.499501 L 9.997906 13.499501 M 11.999556 13.499501 L 12.997795 13.499501 M 17.001095 13.499501 L 17.999334 13.499501 M 18.997573 13.499501 L 23.000873 13.499501 M 23.999112 13.499501 L 31.002302 13.499501 M 32.000541 13.499501 L 35.998669 13.499501 M 37.00208 13.499501 L 38.000319 13.499501 M 41.000208 13.499501 L 41.998447 13.499501 M 43.001858 13.499501 L 44.000097 13.499501 M 44.998336 13.499501 L 46.001747 13.499501 M 2.999888 14.49774 L 6.998017 14.49774 M 8.001428 14.49774 L 8.999667 14.49774 M 15.997684 14.49774 L 17.001095 14.49774 M 18.997573 14.49774 L 21.997462 14.49774 M 23.999112 14.49774 L 26.000762 14.49774 M 32.000541 14.49774 L 32.998779 14.49774 M 34.002191 14.49774 L 35.998669 14.49774 M 37.00208 14.49774 L 38.000319 14.49774 M 40.001969 14.49774 L 41.998447 14.49774 M 43.001858 14.49774 L 44.000097 14.49774 M 2.001649 15.501151 L 5.999778 15.501151 M 6.998017 15.501151 L 8.001428 15.501151 M 9.997906 15.501151 L 11.001317 15.501151 M 11.999556 15.501151 L 14.001206 15.501151 M 14.999445 15.501151 L 17.999334 15.501151 M 26.000762 15.501151 L 29.000651 15.501151 M 31.002302 15.501151 L 32.000541 15.501151 M 32.998779 15.501151 L 35.00043 15.501151 M 37.00208 15.501151 L 38.998558 15.501151 M 40.001969 15.501151 L 41.000208 15.501151 M 41.998447 15.501151 L 44.998336 15.501151 M 46.001747 15.501151 L 46.999986 15.501151 M 2.999888 16.49939 L 3.998127 16.49939 M 5.999778 16.49939 L 9.997906 16.49939 M 11.999556 16.49939 L 12.997795 16.49939 M 15.997684 16.49939 L 17.999334 16.49939 M 21.997462 16.49939 L 23.000873 16.49939 M 23.999112 16.49939 L 25.002523 16.49939 M 28.002412 16.49939 L 29.000651 16.49939 M 31.002302 16.49939 L 32.000541 16.49939 M 32.998779 16.49939 L 34.002191 16.49939 M 35.00043 16.49939 L 35.998669 16.49939 M 37.00208 16.49939 L 41.998447 16.49939 M 44.998336 16.49939 L 46.999986 16.49939 M 2.001649 17.497629 L 3.998127 17.497629 M 6.998017 17.497629 L 8.001428 17.497629 M 9.997906 17.497629 L 11.001317 17.497629 M 14.001206 17.497629 L 17.001095 17.497629 M 17.999334 17.497629 L 18.997573 17.497629 M 20.000984 17.497629 L 26.999001 17.497629 M 28.002412 17.497629 L 32.000541 17.497629 M 34.002191 17.497629 L 35.00043 17.497629 M 37.00208 17.497629 L 38.000319 17.497629 M 40.001969 17.497629 L 41.000208 17.497629 M 43.001858 17.497629 L 44.998336 17.497629 M 3.998127 18.50104 L 5.999778 18.50104 M 8.001428 18.50104 L 8.999667 18.50104 M 9.997906 18.50104 L 11.999556 18.50104 M 14.999445 18.50104 L 17.001095 18.50104 M 17.999334 18.50104 L 21.997462 18.50104 M 23.000873 18.50104 L 23.999112 18.50104 M 26.000762 18.50104 L 28.002412 18.50104 M 29.000651 18.50104 L 31.002302 18.50104 M 34.002191 18.50104 L 35.998669 18.50104 M 38.998558 18.50104 L 40.001969 18.50104 M 41.998447 18.50104 L 43.001858 18.50104 M 44.000097 18.50104 L 46.001747 18.50104 M 2.001649 19.499279 L 3.998127 19.499279 M 6.998017 19.499279 L 8.001428 19.499279 M 9.997906 19.499279 L 11.999556 19.499279 M 15.997684 19.499279 L 25.002523 19.499279 M 26.000762 19.499279 L 26.999001 19.499279 M 28.002412 19.499279 L 29.000651 19.499279 M 31.002302 19.499279 L 35.998669 19.499279 M 37.00208 19.499279 L 38.998558 19.499279 M 41.000208 19.499279 L 41.998447 19.499279 M 44.000097 19.499279 L 44.998336 19.499279 M 46.001747 19.499279 L 46.999986 19.499279 M 2.001649 20.497518 L 5.001539 20.497518 M 6.998017 20.497518 L 8.999667 20.497518 M 9.997906 20.497518 L 11.001317 20.497518 M 11.999556 20.497518 L 14.001206 20.497518 M 14.999445 20.497518 L 15.997684 20.497518 M 17.001095 20.497518 L 20.999223 20.497518 M 25.002523 20.497518 L 26.000762 20.497518 M 28.002412 20.497518 L 29.000651 20.497518 M 31.002302 20.497518 L 32.998779 20.497518 M 35.998669 20.497518 L 37.00208 20.497518 M 38.000319 20.497518 L 38.998558 20.497518 M 41.000208 20.497518 L 44.998336 20.497518 M 46.001747 20.497518 L 46.999986 20.497518 M 5.001539 21.500929 L 5.999778 21.500929 M 11.001317 21.500929 L 12.997795 21.500929 M 17.001095 21.500929 L 20.999223 21.500929 M 23.999112 21.500929 L 26.000762 21.500929 M 29.000651 21.500929 L 29.99889 21.500929 M 32.000541 21.500929 L 34.002191 21.500929 M 37.00208 21.500929 L 38.000319 21.500929 M 38.998558 21.500929 L 40.001969 21.500929 M 44.000097 21.500929 L 46.001747 21.500929 M 2.001649 22.499168 L 2.999888 22.499168 M 3.998127 22.499168 L 11.001317 22.499168 M 11.999556 22.499168 L 14.999445 22.499168 M 17.001095 22.499168 L 20.000984 22.499168 M 21.997462 22.499168 L 26.999001 22.499168 M 28.002412 22.499168 L 29.99889 22.499168 M 31.002302 22.499168 L 32.998779 22.499168 M 35.998669 22.499168 L 37.00208 22.499168 M 38.000319 22.499168 L 44.998336 22.499168 M 2.001649 23.502579 L 6.998017 23.502579 M 9.997906 23.502579 L 11.999556 23.502579 M 12.997795 23.502579 L 14.999445 23.502579 M 17.999334 23.502579 L 18.997573 23.502579 M 21.997462 23.502579 L 23.000873 23.502579 M 26.000762 23.502579 L 29.000651 23.502579 M 31.002302 23.502579 L 37.00208 23.502579 M 38.000319 23.502579 L 38.998558 23.502579 M 41.998447 23.502579 L 43.001858 23.502579 M 44.000097 23.502579 L 44.998336 23.502579 M 3.998127 24.500818 L 6.998017 24.500818 M 8.001428 24.500818 L 8.999667 24.500818 M 9.997906 24.500818 L 12.997795 24.500818 M 17.001095 24.500818 L 17.999334 24.500818 M 20.000984 24.500818 L 23.000873 24.500818 M 23.999112 24.500818 L 25.002523 24.500818 M 26.000762 24.500818 L 28.002412 24.500818 M 31.002302 24.500818 L 32.000541 24.500818 M 34.002191 24.500818 L 37.00208 24.500818 M 38.000319 24.500818 L 38.998558 24.500818 M 40.001969 24.500818 L 41.000208 24.500818 M 41.998447 24.500818 L 43.001858 24.500818 M 44.998336 24.500818 L 46.001747 24.500818 M 5.999778 25.499057 L 6.998017 25.499057 M 9.997906 25.499057 L 11.001317 25.499057 M 11.999556 25.499057 L 14.999445 25.499057 M 15.997684 25.499057 L 17.999334 25.499057 M 18.997573 25.499057 L 20.999223 25.499057 M 21.997462 25.499057 L 23.000873 25.499057 M 26.000762 25.499057 L 29.99889 25.499057 M 38.000319 25.499057 L 38.998558 25.499057 M 41.998447 25.499057 L 43.001858 25.499057 M 44.998336 25.499057 L 46.999986 25.499057 M 2.001649 26.502469 L 3.998127 26.502469 M 5.001539 26.502469 L 11.001317 26.502469 M 17.999334 26.502469 L 20.000984 26.502469 M 20.999223 26.502469 L 28.002412 26.502469 M 29.000651 26.502469 L 29.99889 26.502469 M 32.000541 26.502469 L 34.002191 26.502469 M 38.000319 26.502469 L 43.001858 26.502469 M 44.998336 26.502469 L 46.999986 26.502469 M 8.999667 27.500708 L 9.997906 27.500708 M 11.999556 27.500708 L 12.997795 27.500708 M 14.001206 27.500708 L 14.999445 27.500708 M 15.997684 27.500708 L 17.001095 27.500708 M 20.000984 27.500708 L 20.999223 27.500708 M 23.000873 27.500708 L 25.002523 27.500708 M 26.000762 27.500708 L 26.999001 27.500708 M 28.002412 27.500708 L 29.000651 27.500708 M 29.99889 27.500708 L 32.000541 27.500708 M 34.002191 27.500708 L 35.998669 27.500708 M 38.998558 27.500708 L 41.998447 27.500708 M 43.001858 27.500708 L 44.000097 27.500708 M 44.998336 27.500708 L 46.001747 27.500708 M 2.001649 28.498946 L 5.001539 28.498946 M 5.999778 28.498946 L 8.999667 28.498946 M 11.001317 28.498946 L 12.997795 28.498946 M 15.997684 28.498946 L 17.001095 28.498946 M 21.997462 28.498946 L 26.999001 28.498946 M 28.002412 28.498946 L 29.000651 28.498946 M 32.998779 28.498946 L 34.002191 28.498946 M 35.00043 28.498946 L 35.998669 28.498946 M 37.00208 28.498946 L 38.000319 28.498946 M 38.998558 28.498946 L 40.001969 28.498946 M 41.000208 28.498946 L 41.998447 28.498946 M 44.998336 28.498946 L 46.001747 28.498946 M 2.001649 29.502358 L 2.999888 29.502358 M 3.998127 29.502358 L 5.999778 29.502358 M 8.999667 29.502358 L 9.997906 29.502358 M 11.001317 29.502358 L 11.999556 29.502358 M 12.997795 29.502358 L 14.999445 29.502358 M 15.997684 29.502358 L 17.001095 29.502358 M 17.999334 29.502358 L 20.000984 29.502358 M 21.997462 29.502358 L 23.000873 29.502358 M 29.99889 29.502358 L 31.002302 29.502358 M 32.000541 29.502358 L 32.998779 29.502358 M 34.002191 29.502358 L 35.00043 29.502358 M 35.998669 29.502358 L 38.000319 29.502358 M 40.001969 29.502358 L 41.000208 29.502358 M 44.998336 29.502358 L 46.999986 29.502358 M 2.001649 30.500597 L 2.999888 30.500597 M 3.998127 30.500597 L 6.998017 30.500597 M 8.001428 30.500597 L 8.999667 30.500597 M 9.997906 30.500597 L 11.001317 30.500597 M 14.001206 30.500597 L 14.999445 30.500597 M 17.999334 30.500597 L 18.997573 30.500597 M 20.000984 30.500597 L 21.997462 30.500597 M 25.002523 30.500597 L 26.000762 30.500597 M 26.999001 30.500597 L 29.99889 30.500597 M 34.002191 30.500597 L 35.00043 30.500597 M 35.998669 30.500597 L 37.00208 30.500597 M 41.000208 30.500597 L 43.001858 30.500597 M 44.000097 30.500597 L 46.999986 30.500597 M 2.001649 31.498836 L 6.998017 31.498836 M 9.997906 31.498836 L 11.999556 31.498836 M 12.997795 31.498836 L 14.999445 31.498836 M 15.997684 31.498836 L 17.999334 31.498836 M 20.000984 31.498836 L 26.000762 31.498836 M 28.002412 31.498836 L 29.000651 31.498836 M 31.002302 31.498836 L 32.998779 31.498836 M 35.00043 31.498836 L 35.998669 31.498836 M 38.000319 31.498836 L 38.998558 31.498836 M 41.000208 31.498836 L 41.998447 31.498836 M 43.001858 31.498836 L 46.001747 31.498836 M 3.998127 32.502247 L 5.001539 32.502247 M 6.998017 32.502247 L 8.999667 32.502247 M 11.001317 32.502247 L 12.997795 32.502247 M 14.001206 32.502247 L 15.997684 32.502247 M 18.997573 32.502247 L 20.000984 32.502247 M 21.997462 32.502247 L 23.000873 32.502247 M 23.999112 32.502247 L 25.002523 32.502247 M 26.999001 32.502247 L 28.002412 32.502247 M 32.998779 32.502247 L 35.998669 32.502247 M 37.00208 32.502247 L 38.998558 32.502247 M 41.000208 32.502247 L 43.001858 32.502247 M 44.998336 32.502247 L 46.999986 32.502247 M 2.001649 33.500486 L 3.998127 33.500486 M 5.999778 33.500486 L 6.998017 33.500486 M 11.001317 33.500486 L 12.997795 33.500486 M 14.999445 33.500486 L 15.997684 33.500486 M 17.999334 33.500486 L 20.999223 33.500486 M 23.000873 33.500486 L 26.000762 33.500486 M 26.999001 33.500486 L 28.002412 33.500486 M 29.000651 33.500486 L 29.99889 33.500486 M 38.000319 33.500486 L 41.000208 33.500486 M 43.001858 33.500486 L 44.998336 33.500486 M 46.001747 33.500486 L 46.999986 33.500486 M 2.001649 34.498725 L 2.999888 34.498725 M 3.998127 34.498725 L 5.001539 34.498725 M 6.998017 34.498725 L 8.999667 34.498725 M 11.001317 34.498725 L 12.997795 34.498725 M 15.997684 34.498725 L 17.999334 34.498725 M 20.000984 34.498725 L 23.999112 34.498725 M 25.002523 34.498725 L 32.998779 34.498725 M 34.002191 34.498725 L 35.00043 34.498725 M 40.001969 34.498725 L 41.000208 34.498725 M 43.001858 34.498725 L 44.000097 34.498725 M 46.001747 34.498725 L 46.999986 34.498725 M 3.998127 35.502136 L 6.998017 35.502136 M 8.999667 35.502136 L 9.997906 35.502136 M 11.001317 35.502136 L 11.999556 35.502136 M 14.999445 35.502136 L 15.997684 35.502136 M 17.001095 35.502136 L 20.999223 35.502136 M 23.999112 35.502136 L 25.002523 35.502136 M 26.000762 35.502136 L 26.999001 35.502136 M 28.002412 35.502136 L 29.000651 35.502136 M 29.99889 35.502136 L 31.002302 35.502136 M 32.000541 35.502136 L 32.998779 35.502136 M 35.00043 35.502136 L 35.998669 35.502136 M 38.000319 35.502136 L 38.998558 35.502136 M 40.001969 35.502136 L 41.998447 35.502136 M 43.001858 35.502136 L 44.000097 35.502136 M 44.998336 35.502136 L 46.999986 35.502136 M 5.999778 36.500375 L 6.998017 36.500375 M 8.001428 36.500375 L 9.997906 36.500375 M 11.999556 36.500375 L 12.997795 36.500375 M 14.999445 36.500375 L 15.997684 36.500375 M 20.000984 36.500375 L 21.997462 36.500375 M 25.002523 36.500375 L 26.000762 36.500375 M 28.002412 36.500375 L 31.002302 36.500375 M 32.000541 36.500375 L 32.998779 36.500375 M 38.000319 36.500375 L 40.001969 36.500375 M 41.000208 36.500375 L 44.998336 36.500375 M 2.999888 37.498614 L 6.998017 37.498614 M 8.999667 37.498614 L 14.001206 37.498614 M 15.997684 37.498614 L 17.001095 37.498614 M 17.999334 37.498614 L 20.999223 37.498614 M 23.000873 37.498614 L 23.999112 37.498614 M 26.000762 37.498614 L 29.99889 37.498614 M 31.002302 37.498614 L 32.998779 37.498614 M 35.00043 37.498614 L 37.00208 37.498614 M 38.000319 37.498614 L 38.998558 37.498614 M 40.001969 37.498614 L 41.000208 37.498614 M 44.000097 37.498614 L 44.998336 37.498614 M 2.001649 38.502025 L 2.999888 38.502025 M 5.001539 38.502025 L 6.998017 38.502025 M 8.001428 38.502025 L 11.001317 38.502025 M 12.997795 38.502025 L 14.001206 38.502025 M 15.997684 38.502025 L 17.001095 38.502025 M 17.999334 38.502025 L 18.997573 38.502025 M 20.999223 38.502025 L 28.002412 38.502025 M 29.000651 38.502025 L 29.99889 38.502025 M 32.000541 38.502025 L 32.998779 38.502025 M 35.998669 38.502025 L 37.00208 38.502025 M 38.000319 38.502025 L 46.999986 38.502025 M 9.997906 39.500264 L 11.999556 39.500264 M 12.997795 39.500264 L 17.999334 39.500264 M 20.999223 39.500264 L 23.000873 39.500264 M 26.000762 39.500264 L 26.999001 39.500264 M 29.000651 39.500264 L 29.99889 39.500264 M 31.002302 39.500264 L 37.00208 39.500264 M 38.000319 39.500264 L 38.998558 39.500264 M 41.998447 39.500264 L 43.001858 39.500264 M 44.998336 39.500264 L 46.001747 39.500264 M 2.001649 40.498503 L 8.999667 40.498503 M 9.997906 40.498503 L 11.001317 40.498503 M 15.997684 40.498503 L 17.999334 40.498503 M 18.997573 40.498503 L 20.999223 40.498503 M 21.997462 40.498503 L 23.000873 40.498503 M 23.999112 40.498503 L 25.002523 40.498503 M 26.000762 40.498503 L 26.999001 40.498503 M 29.99889 40.498503 L 34.002191 40.498503 M 35.00043 40.498503 L 35.998669 40.498503 M 38.000319 40.498503 L 38.998558 40.498503 M 40.001969 40.498503 L 41.000208 40.498503 M 41.998447 40.498503 L 43.001858 40.498503 M 44.998336 40.498503 L 46.001747 40.498503 M 2.001649 41.501914 L 2.999888 41.501914 M 8.001428 41.501914 L 8.999667 41.501914 M 11.001317 41.501914 L 14.999445 41.501914 M 15.997684 41.501914 L 17.001095 41.501914 M 18.997573 41.501914 L 20.000984 41.501914 M 20.999223 41.501914 L 23.000873 41.501914 M 26.000762 41.501914 L 28.002412 41.501914 M 29.000651 41.501914 L 29.99889 41.501914 M 31.002302 41.501914 L 32.000541 41.501914 M 32.998779 41.501914 L 35.00043 41.501914 M 35.998669 41.501914 L 38.998558 41.501914 M 41.998447 41.501914 L 43.001858 41.501914 M 44.998336 41.501914 L 46.001747 41.501914 M 2.001649 42.500153 L 2.999888 42.500153 M 3.998127 42.500153 L 6.998017 42.500153 M 8.001428 42.500153 L 8.999667 42.500153 M 9.997906 42.500153 L 11.001317 42.500153 M 14.001206 42.500153 L 15.997684 42.500153 M 17.999334 42.500153 L 18.997573 42.500153 M 21.997462 42.500153 L 29.000651 42.500153 M 32.000541 42.500153 L 35.998669 42.500153 M 37.00208 42.500153 L 43.001858 42.500153 M 46.001747 42.500153 L 46.999986 42.500153 M 2.001649 43.498392 L 2.999888 43.498392 M 3.998127 43.498392 L 6.998017 43.498392 M 8.001428 43.498392 L 8.999667 43.498392 M 11.001317 43.498392 L 12.997795 43.498392 M 14.001206 43.498392 L 14.999445 43.498392 M 15.997684 43.498392 L 17.001095 43.498392 M 20.999223 43.498392 L 25.002523 43.498392 M 26.000762 43.498392 L 26.999001 43.498392 M 28.002412 43.498392 L 29.000651 43.498392 M 31.002302 43.498392 L 32.000541 43.498392 M 34.002191 43.498392 L 35.998669 43.498392 M 38.998558 43.498392 L 41.000208 43.498392 M 43.001858 43.498392 L 44.998336 43.498392 M 2.001649 44.501803 L 2.999888 44.501803 M 3.998127 44.501803 L 6.998017 44.501803 M 8.001428 44.501803 L 8.999667 44.501803 M 11.001317 44.501803 L 12.997795 44.501803 M 14.999445 44.501803 L 15.997684 44.501803 M 17.001095 44.501803 L 17.999334 44.501803 M 18.997573 44.501803 L 20.000984 44.501803 M 20.999223 44.501803 L 21.997462 44.501803 M 23.000873 44.501803 L 26.000762 44.501803 M 28.002412 44.501803 L 29.99889 44.501803 M 31.002302 44.501803 L 32.000541 44.501803 M 32.998779 44.501803 L 34.002191 44.501803 M 38.000319 44.501803 L 40.001969 44.501803 M 41.000208 44.501803 L 41.998447 44.501803 M 2.001649 45.500042 L 2.999888 45.500042 M 8.001428 45.500042 L 8.999667 45.500042 M 14.999445 45.500042 L 15.997684 45.500042 M 18.997573 45.500042 L 20.000984 45.500042 M 20.999223 45.500042 L 25.002523 45.500042 M 26.000762 45.500042 L 29.000651 45.500042 M 29.99889 45.500042 L 31.002302 45.500042 M 32.000541 45.500042 L 32.998779 45.500042 M 34.002191 45.500042 L 38.000319 45.500042 M 41.000208 45.500042 L 43.001858 45.500042 M 2.001649 46.498281 L 8.999667 46.498281 M 9.997906 46.498281 L 11.001317 46.498281 M 11.999556 46.498281 L 14.999445 46.498281 M 17.001095 46.498281 L 18.997573 46.498281 M 21.997462 46.498281 L 25.002523 46.498281 M 26.999001 46.498281 L 28.002412 46.498281 M 29.000651 46.498281 L 29.99889 46.498281 M 32.000541 46.498281 L 32.998779 46.498281 M 34.002191 46.498281 L 35.00043 46.498281 M 35.998669 46.498281 L 37.00208 46.498281 M 38.000319 46.498281 L 40.001969 46.498281 M 41.000208 46.498281 L 41.998447 46.498281 M 46.001747 46.498281 L 46.999986 46.498281 " stroke="#ee7f1d" stroke-width="1" stroke-opacity="1" stroke-miterlimit="4"/></svg>