<svg xmlns="http://www.w3.org/2000/svg" xmlns:xlink="http://www.w3.org/1999/xlink" width="500" zoomAndPan="magnify" viewBox="0 0 375 374.999991" height="500" preserveAspectRatio="xMidYMid meet" version="1.0"><defs><clipPath id="43432c1dbb"><path d="M 27.890625 27.890625 L 347.109375 27.890625 L 347.109375 347.109375 L 27.890625 347.109375 Z M 27.890625 27.890625 " clip-rule="nonzero"/></clipPath><clipPath id="cf60d96416"><path d="M 187.5 27.890625 C 99.351562 27.890625 27.890625 99.351562 27.890625 187.5 C 27.890625 275.648438 99.351562 347.109375 187.5 347.109375 C 275.648438 347.109375 347.109375 275.648438 347.109375 187.5 C 347.109375 99.351562 275.648438 27.890625 187.5 27.890625 Z M 187.5 27.890625 " clip-rule="nonzero"/></clipPath><clipPath id="d7d6a5b15d"><path d="M 34.652344 34.652344 L 340.347656 34.652344 L 340.347656 340.347656 L 34.652344 340.347656 Z M 34.652344 34.652344 " clip-rule="nonzero"/></clipPath><clipPath id="3515cde0bb"><path d="M 187.5 34.652344 C 103.085938 34.652344 34.652344 103.085938 34.652344 187.5 C 34.652344 271.914062 103.085938 340.347656 187.5 340.347656 C 271.914062 340.347656 340.347656 271.914062 340.347656 187.5 C 340.347656 103.085938 271.914062 34.652344 187.5 34.652344 Z M 187.5 34.652344 " clip-rule="nonzero"/></clipPath><clipPath id="ca33afd194"><path d="M 39.105469 39.601562 L 335.894531 39.601562 L 335.894531 336.390625 L 39.105469 336.390625 Z M 39.105469 39.601562 " clip-rule="nonzero"/></clipPath><clipPath id="13b64a9fb7"><path d="M 187.5 39.601562 C 105.542969 39.601562 39.105469 106.039062 39.105469 187.996094 C 39.105469 269.953125 105.542969 336.390625 187.5 336.390625 C 269.457031 336.390625 335.894531 269.953125 335.894531 187.996094 C 335.894531 106.039062 269.457031 39.601562 187.5 39.601562 Z M 187.5 39.601562 " clip-rule="nonzero"/></clipPath><clipPath id="84824b4ef5"><path d="M 46.117188 46.613281 L 328.882812 46.613281 L 328.882812 329.378906 L 46.117188 329.378906 Z M 46.117188 46.613281 " clip-rule="nonzero"/></clipPath><clipPath id="5a58462c98"><path d="M 187.5 46.613281 C 109.417969 46.613281 46.117188 109.914062 46.117188 187.996094 C 46.117188 266.078125 109.417969 329.378906 187.5 329.378906 C 265.582031 329.378906 328.882812 266.078125 328.882812 187.996094 C 328.882812 109.914062 265.582031 46.613281 187.5 46.613281 Z M 187.5 46.613281 " clip-rule="nonzero"/></clipPath></defs><g clip-path="url(#43432c1dbb)"><g clip-path="url(#cf60d96416)"><path fill="#72726f" d="M 27.890625 27.890625 L 347.109375 27.890625 L 347.109375 347.109375 L 27.890625 347.109375 Z M 27.890625 27.890625 " fill-opacity="1" fill-rule="nonzero"/></g></g><g clip-path="url(#d7d6a5b15d)"><g clip-path="url(#3515cde0bb)"><path fill="#ffffff" d="M 34.652344 34.652344 L 340.347656 34.652344 L 340.347656 340.347656 L 34.652344 340.347656 Z M 34.652344 34.652344 " fill-opacity="1" fill-rule="nonzero"/></g></g><g clip-path="url(#ca33afd194)"><g clip-path="url(#13b64a9fb7)"><path fill="#ee7f1d" d="M 39.105469 39.601562 L 335.894531 39.601562 L 335.894531 336.390625 L 39.105469 336.390625 Z M 39.105469 39.601562 " fill-opacity="1" fill-rule="nonzero"/></g></g><g clip-path="url(#84824b4ef5)"><g clip-path="url(#5a58462c98)"><path fill="#ffffff" d="M 46.117188 46.613281 L 328.882812 46.613281 L 328.882812 329.378906 L 46.117188 329.378906 Z M 46.117188 46.613281 " fill-opacity="1" fill-rule="nonzero"/></g></g></svg>