<svg xmlns="http://www.w3.org/2000/svg" xmlns:xlink="http://www.w3.org/1999/xlink" width="50" zoomAndPan="magnify" viewBox="0 0 37.5 37.499999" height="50" preserveAspectRatio="xMidYMid meet" version="1.0"><defs><clipPath id="7e98b9f245"><path d="M 5.058594 5.027344 L 31.707031 5.027344 L 31.707031 31.671875 L 5.058594 31.671875 Z M 5.058594 5.027344 " clip-rule="nonzero"/></clipPath></defs><g clip-path="url(#7e98b9f245)"><path fill="#ee7f1d" d="M 18.488281 5.050781 C 11.027344 5.078125 5.0625 11.144531 5.160156 18.605469 C 5.175781 20.121094 5.445312 21.585938 5.960938 23.007812 C 6.480469 24.429688 7.21875 25.726562 8.179688 26.898438 C 8.332031 27.085938 8.421875 27.300781 8.441406 27.542969 C 8.460938 27.785156 8.414062 28.011719 8.296875 28.226562 L 7.144531 30.289062 C 6.824219 30.863281 7.34375 31.539062 7.980469 31.378906 L 11.882812 30.382812 C 12.164062 30.3125 12.433594 30.339844 12.695312 30.46875 C 14.441406 31.316406 16.285156 31.761719 18.226562 31.800781 C 25.730469 31.972656 31.890625 25.976562 31.914062 18.472656 C 31.9375 11.046875 25.914062 5.027344 18.488281 5.050781 Z M 18.535156 30.15625 C 17.765625 30.15625 17.003906 30.082031 16.246094 29.933594 C 15.492188 29.78125 14.757812 29.558594 14.046875 29.265625 C 13.335938 28.96875 12.660156 28.609375 12.019531 28.179688 C 11.378906 27.753906 10.785156 27.265625 10.242188 26.722656 C 9.695312 26.179688 9.210938 25.585938 8.78125 24.945312 C 8.355469 24.304688 7.992188 23.628906 7.699219 22.917969 C 7.402344 22.207031 7.183594 21.472656 7.03125 20.71875 C 6.882812 19.960938 6.804688 19.199219 6.804688 18.429688 C 6.804688 11.949219 12.058594 6.699219 18.535156 6.699219 C 24.988281 6.699219 30.222656 11.910156 30.265625 18.351562 C 30.304688 24.816406 25 30.15625 18.535156 30.15625 Z M 18.535156 30.15625 " fill-opacity="1" fill-rule="nonzero"/></g><path fill="#666666" d="M 30.265625 18.429688 C 30.265625 19.199219 30.1875 19.960938 30.039062 20.71875 C 29.886719 21.472656 29.667969 22.207031 29.371094 22.917969 C 29.078125 23.628906 28.714844 24.304688 28.289062 24.945312 C 27.859375 25.585938 27.375 26.179688 26.828125 26.722656 C 26.285156 27.265625 25.691406 27.753906 25.050781 28.179688 C 24.410156 28.609375 23.734375 28.96875 23.023438 29.265625 C 22.3125 29.558594 21.578125 29.78125 20.824219 29.933594 C 20.066406 30.082031 19.304688 30.15625 18.535156 30.15625 C 17.765625 30.15625 17.003906 30.082031 16.246094 29.933594 C 15.492188 29.78125 14.757812 29.558594 14.046875 29.265625 C 13.335938 28.96875 12.660156 28.609375 12.019531 28.179688 C 11.378906 27.753906 10.785156 27.265625 10.242188 26.722656 C 9.695312 26.179688 9.210938 25.585938 8.78125 24.945312 C 8.355469 24.304688 7.992188 23.628906 7.699219 22.917969 C 7.402344 22.207031 7.183594 21.472656 7.03125 20.71875 C 6.882812 19.960938 6.804688 19.199219 6.804688 18.429688 C 6.804688 17.660156 6.882812 16.894531 7.03125 16.140625 C 7.183594 15.386719 7.402344 14.652344 7.699219 13.941406 C 7.992188 13.230469 8.355469 12.554688 8.78125 11.914062 C 9.210938 11.273438 9.695312 10.679688 10.242188 10.136719 C 10.785156 9.589844 11.378906 9.105469 12.019531 8.675781 C 12.660156 8.25 13.335938 7.886719 14.046875 7.59375 C 14.757812 7.296875 15.492188 7.074219 16.246094 6.925781 C 17.003906 6.773438 17.765625 6.699219 18.535156 6.699219 C 19.304688 6.699219 20.066406 6.773438 20.824219 6.925781 C 21.578125 7.074219 22.3125 7.296875 23.023438 7.59375 C 23.734375 7.886719 24.410156 8.25 25.050781 8.675781 C 25.691406 9.105469 26.285156 9.589844 26.828125 10.136719 C 27.375 10.679688 27.859375 11.273438 28.289062 11.914062 C 28.714844 12.554688 29.078125 13.230469 29.371094 13.941406 C 29.667969 14.652344 29.886719 15.386719 30.039062 16.140625 C 30.1875 16.894531 30.265625 17.660156 30.265625 18.429688 Z M 30.265625 18.429688 " fill-opacity="1" fill-rule="nonzero"/><path fill="#ee7f1d" d="M 16.4375 12.726562 L 16.445312 12.738281 L 17.144531 14.125 C 17.300781 14.433594 17.347656 14.757812 17.285156 15.097656 C 17.226562 15.4375 17.066406 15.726562 16.816406 15.960938 C 16.5625 16.195312 16.40625 16.480469 16.34375 16.816406 C 16.28125 17.15625 16.328125 17.480469 16.480469 17.785156 C 16.902344 18.628906 17.628906 19.792969 18.738281 20.632812 C 18.992188 20.824219 19.28125 20.929688 19.597656 20.945312 C 19.917969 20.960938 20.214844 20.886719 20.488281 20.722656 L 20.9375 20.449219 C 21.371094 20.183594 21.824219 20.144531 22.296875 20.324219 L 24.089844 21.003906 C 24.28125 21.078125 24.453125 21.183594 24.601562 21.324219 C 24.753906 21.46875 24.871094 21.632812 24.953125 21.820312 C 25.039062 22.007812 25.082031 22.203125 25.089844 22.410156 C 25.097656 22.617188 25.0625 22.816406 24.988281 23.007812 C 24.96875 23.0625 24.945312 23.117188 24.917969 23.167969 L 24.421875 24.128906 C 24.253906 24.453125 24.003906 24.6875 23.671875 24.835938 C 23.34375 24.984375 23 25.011719 22.648438 24.921875 C 19.835938 24.195312 13.132812 21.664062 12.59375 14.015625 C 12.570312 13.707031 12.636719 13.414062 12.789062 13.144531 C 12.941406 12.875 13.15625 12.667969 13.433594 12.523438 L 14.347656 12.054688 C 14.53125 11.960938 14.722656 11.90625 14.929688 11.886719 C 15.132812 11.871094 15.335938 11.894531 15.53125 11.957031 C 15.726562 12.019531 15.90625 12.117188 16.0625 12.25 C 16.21875 12.386719 16.34375 12.542969 16.4375 12.726562 Z M 16.4375 12.726562 " fill-opacity="1" fill-rule="nonzero"/></svg>