<svg xmlns="http://www.w3.org/2000/svg" xmlns:xlink="http://www.w3.org/1999/xlink" width="50" zoomAndPan="magnify" viewBox="0 0 37.5 37.499999" height="50" preserveAspectRatio="xMidYMid meet" version="1.0"><defs><clipPath id="c3af28c456"><path d="M 0 0 L 37.007812 0 L 37.007812 37.007812 L 0 37.007812 Z M 0 0 " clip-rule="nonzero"/></clipPath></defs><g clip-path="url(#c3af28c456)"><path fill="#ffffff" d="M 0 0 L 37.007812 0 L 37.007812 37.007812 L 0 37.007812 Z M 0 0 " fill-opacity="1" fill-rule="nonzero"/></g><path stroke-linecap="butt" transform="matrix(1.480263, 0, 0, 1.480263, 0.0000005, 0)" fill-opacity="1" fill="#ffffff" fill-rule="nonzero" stroke-linejoin="miter" d="M 2.000278 2.499028 L 9.00125 2.499028 M 9.99875 2.499028 L 12.999167 2.499028 M 13.999306 2.499028 L 14.999445 2.499028 M 15.999584 2.499028 L 23.000557 2.499028 M 2.000278 3.499167 L 3.000417 3.499167 M 8.001111 3.499167 L 9.00125 3.499167 M 12.999167 3.499167 L 14.999445 3.499167 M 15.999584 3.499167 L 16.999723 3.499167 M 22.000418 3.499167 L 23.000557 3.499167 M 2.000278 4.499306 L 3.000417 4.499306 M 4.000555 4.499306 L 7.000972 4.499306 M 8.001111 4.499306 L 9.00125 4.499306 M 9.99875 4.499306 L 11.999028 4.499306 M 12.999167 4.499306 L 13.999306 4.499306 M 15.999584 4.499306 L 16.999723 4.499306 M 17.999862 4.499306 L 21.000279 4.499306 M 22.000418 4.499306 L 23.000557 4.499306 M 2.000278 5.499445 L 3.000417 5.499445 M 4.000555 5.499445 L 7.000972 5.499445 M 8.001111 5.499445 L 9.00125 5.499445 M 10.998889 5.499445 L 13.999306 5.499445 M 15.999584 5.499445 L 16.999723 5.499445 M 17.999862 5.499445 L 21.000279 5.499445 M 22.000418 5.499445 L 23.000557 5.499445 M 2.000278 6.499584 L 3.000417 6.499584 M 4.000555 6.499584 L 7.000972 6.499584 M 8.001111 6.499584 L 9.00125 6.499584 M 10.998889 6.499584 L 11.999028 6.499584 M 13.999306 6.499584 L 14.999445 6.499584 M 15.999584 6.499584 L 16.999723 6.499584 M 17.999862 6.499584 L 21.000279 6.499584 M 22.000418 6.499584 L 23.000557 6.499584 M 2.000278 7.499723 L 3.000417 7.499723 M 8.001111 7.499723 L 9.00125 7.499723 M 9.99875 7.499723 L 11.999028 7.499723 M 15.999584 7.499723 L 16.999723 7.499723 M 22.000418 7.499723 L 23.000557 7.499723 M 2.000278 8.499862 L 9.00125 8.499862 M 9.99875 8.499862 L 10.998889 8.499862 M 11.999028 8.499862 L 12.999167 8.499862 M 13.999306 8.499862 L 14.999445 8.499862 M 15.999584 8.499862 L 23.000557 8.499862 M 11.999028 9.500001 L 13.999306 9.500001 M 2.000278 10.50014 L 3.000417 10.50014 M 4.000555 10.50014 L 5.000694 10.50014 M 8.001111 10.50014 L 9.99875 10.50014 M 11.999028 10.50014 L 14.999445 10.50014 M 16.999723 10.50014 L 17.999862 10.50014 M 20.00014 10.50014 L 21.000279 10.50014 M 22.000418 10.50014 L 23.000557 10.50014 M 2.000278 11.500279 L 3.000417 11.500279 M 4.000555 11.500279 L 7.000972 11.500279 M 9.99875 11.500279 L 10.998889 11.500279 M 11.999028 11.500279 L 12.999167 11.500279 M 15.999584 11.500279 L 20.00014 11.500279 M 22.000418 11.500279 L 23.000557 11.500279 M 3.000417 12.500418 L 4.000555 12.500418 M 5.000694 12.500418 L 6.000833 12.500418 M 8.001111 12.500418 L 10.998889 12.500418 M 16.999723 12.500418 L 17.999862 12.500418 M 20.00014 12.500418 L 21.000279 12.500418 M 22.000418 12.500418 L 23.000557 12.500418 M 2.000278 13.500556 L 5.000694 13.500556 M 6.000833 13.500556 L 7.000972 13.500556 M 9.00125 13.500556 L 10.998889 13.500556 M 13.999306 13.500556 L 14.999445 13.500556 M 16.999723 13.500556 L 17.999862 13.500556 M 19.000001 13.500556 L 20.00014 13.500556 M 2.000278 14.500695 L 4.000555 14.500695 M 5.000694 14.500695 L 6.000833 14.500695 M 8.001111 14.500695 L 9.99875 14.500695 M 10.998889 14.500695 L 12.999167 14.500695 M 14.999445 14.500695 L 20.00014 14.500695 M 22.000418 14.500695 L 23.000557 14.500695 M 9.99875 15.500834 L 10.998889 15.500834 M 11.999028 15.500834 L 12.999167 15.500834 M 16.999723 15.500834 L 23.000557 15.500834 M 2.000278 16.500973 L 9.00125 16.500973 M 9.99875 16.500973 L 21.000279 16.500973 M 22.000418 16.500973 L 23.000557 16.500973 M 2.000278 17.501112 L 3.000417 17.501112 M 8.001111 17.501112 L 9.00125 17.501112 M 10.998889 17.501112 L 11.999028 17.501112 M 14.999445 17.501112 L 15.999584 17.501112 M 21.000279 17.501112 L 22.000418 17.501112 M 2.000278 18.501251 L 3.000417 18.501251 M 4.000555 18.501251 L 7.000972 18.501251 M 8.001111 18.501251 L 9.00125 18.501251 M 10.998889 18.501251 L 12.999167 18.501251 M 14.999445 18.501251 L 19.000001 18.501251 M 22.000418 18.501251 L 23.000557 18.501251 M 2.000278 19.498751 L 3.000417 19.498751 M 4.000555 19.498751 L 7.000972 19.498751 M 8.001111 19.498751 L 9.00125 19.498751 M 11.999028 19.498751 L 13.999306 19.498751 M 14.999445 19.498751 L 17.999862 19.498751 M 20.00014 19.498751 L 21.000279 19.498751 M 2.000278 20.49889 L 3.000417 20.49889 M 4.000555 20.49889 L 7.000972 20.49889 M 8.001111 20.49889 L 9.00125 20.49889 M 9.99875 20.49889 L 10.998889 20.49889 M 11.999028 20.49889 L 12.999167 20.49889 M 13.999306 20.49889 L 14.999445 20.49889 M 16.999723 20.49889 L 20.00014 20.49889 M 21.000279 20.49889 L 23.000557 20.49889 M 2.000278 21.499029 L 3.000417 21.499029 M 8.001111 21.499029 L 9.00125 21.499029 M 13.999306 21.499029 L 15.999584 21.499029 M 16.999723 21.499029 L 19.000001 21.499029 M 2.000278 22.499168 L 9.00125 22.499168 M 9.99875 22.499168 L 15.999584 22.499168 M 16.999723 22.499168 L 17.999862 22.499168 M 19.000001 22.499168 L 20.00014 22.499168 M 22.000418 22.499168 L 23.000557 22.499168 " stroke="#ee7f1d" stroke-width="1" stroke-opacity="1" stroke-miterlimit="4"/></svg>