<svg xmlns="http://www.w3.org/2000/svg" xmlns:xlink="http://www.w3.org/1999/xlink" width="50" zoomAndPan="magnify" viewBox="0 0 37.5 37.499999" height="50" preserveAspectRatio="xMidYMid meet" version="1.0"><defs><clipPath id="41f6cca138"><path d="M 2.960938 2.960938 L 34.046875 2.960938 L 34.046875 34.046875 L 2.960938 34.046875 Z M 2.960938 2.960938 " clip-rule="nonzero"/></clipPath></defs><g clip-path="url(#41f6cca138)"><path fill="#666666" d="M 34.046875 18.503906 C 34.046875 19.617188 33.929688 20.707031 33.707031 21.753906 C 33.703125 21.765625 33.699219 21.777344 33.699219 21.785156 C 32.417969 27.738281 27.734375 32.425781 21.78125 33.699219 C 21.773438 33.703125 21.769531 33.703125 21.761719 33.703125 C 20.714844 33.929688 19.621094 34.046875 18.503906 34.046875 C 9.917969 34.046875 2.960938 27.085938 2.960938 18.503906 C 2.960938 9.917969 9.917969 2.957031 18.503906 2.957031 C 27.089844 2.957031 34.046875 9.917969 34.046875 18.503906 " fill-opacity="1" fill-rule="nonzero"/></g><path fill="#4d4d4d" d="M 33.699219 21.785156 C 32.417969 27.738281 27.734375 32.425781 21.78125 33.699219 C 21.773438 33.703125 21.769531 33.703125 21.761719 33.703125 L 11.664062 23.625 L 15.527344 22.902344 L 15.148438 22.78125 L 11.730469 19.382812 L 15.285156 18.613281 L 11.523438 14.851562 L 25.527344 13.613281 L 33.699219 21.785156 " fill-opacity="1" fill-rule="nonzero"/><path fill="#ee7f1d" d="M 12.464844 15.34375 L 24.542969 15.34375 C 25.175781 15.34375 25.6875 14.832031 25.6875 14.199219 C 25.6875 13.566406 25.175781 13.054688 24.542969 13.054688 L 12.464844 13.054688 C 11.832031 13.054688 11.320312 13.566406 11.320312 14.199219 C 11.320312 14.832031 11.832031 15.34375 12.464844 15.34375 " fill-opacity="1" fill-rule="nonzero"/><path fill="#ee7f1d" d="M 24.542969 17.355469 L 12.464844 17.355469 C 11.832031 17.355469 11.320312 17.871094 11.320312 18.503906 C 11.320312 19.136719 11.832031 19.648438 12.464844 19.648438 L 24.542969 19.648438 C 25.175781 19.648438 25.6875 19.136719 25.6875 18.503906 C 25.6875 17.871094 25.175781 17.355469 24.542969 17.355469 " fill-opacity="1" fill-rule="nonzero"/><path fill="#ee7f1d" d="M 24.542969 21.660156 L 12.464844 21.660156 C 11.832031 21.660156 11.320312 22.175781 11.320312 22.804688 C 11.320312 23.4375 11.832031 23.953125 12.464844 23.953125 L 24.542969 23.953125 C 25.175781 23.953125 25.6875 23.4375 25.6875 22.804688 C 25.6875 22.175781 25.175781 21.660156 24.542969 21.660156 " fill-opacity="1" fill-rule="nonzero"/></svg>