<svg xmlns="http://www.w3.org/2000/svg" xmlns:xlink="http://www.w3.org/1999/xlink" width="50" zoomAndPan="magnify" viewBox="0 0 37.5 37.499999" height="50" preserveAspectRatio="xMidYMid meet" version="1.0"><defs><clipPath id="b01f2c7522"><path d="M 0 0 L 37.007812 0 L 37.007812 37.007812 L 0 37.007812 Z M 0 0 " clip-rule="nonzero"/></clipPath></defs><g clip-path="url(#b01f2c7522)"><path fill="#ffffff" d="M 0 0 L 37.007812 0 L 37.007812 37.007812 L 0 37.007812 Z M 0 0 " fill-opacity="1" fill-rule="nonzero"/></g><path stroke-linecap="butt" transform="matrix(1.276089, 0, 0, 1.276089, 0.0000005, 0.000000000000005259)" fill-opacity="1" fill="#ffffff" fill-rule="nonzero" stroke-linejoin="miter" d="M 1.998905 2.500928 L 8.999667 2.500928 M 10.998573 2.500928 L 13.00054 2.500928 M 14.999445 2.500928 L 17.001412 2.500928 M 17.999335 2.500928 L 19.000318 2.500928 M 20.001301 2.500928 L 26.999002 2.500928 M 1.998905 3.49885 L 2.999889 3.49885 M 7.998684 3.49885 L 8.999667 3.49885 M 11.999556 3.49885 L 13.00054 3.49885 M 14.001523 3.49885 L 19.000318 3.49885 M 20.001301 3.49885 L 20.999224 3.49885 M 26.00108 3.49885 L 26.999002 3.49885 M 1.998905 4.499834 L 2.999889 4.499834 M 4.000872 4.499834 L 7.000761 4.499834 M 7.998684 4.499834 L 8.999667 4.499834 M 10.000651 4.499834 L 10.998573 4.499834 M 14.999445 4.499834 L 17.001412 4.499834 M 17.999335 4.499834 L 19.000318 4.499834 M 20.001301 4.499834 L 20.999224 4.499834 M 22.000207 4.499834 L 25.000096 4.499834 M 26.00108 4.499834 L 26.999002 4.499834 M 1.998905 5.500817 L 2.999889 5.500817 M 4.000872 5.500817 L 7.000761 5.500817 M 7.998684 5.500817 L 8.999667 5.500817 M 10.000651 5.500817 L 14.001523 5.500817 M 14.999445 5.500817 L 17.001412 5.500817 M 17.999335 5.500817 L 19.000318 5.500817 M 20.001301 5.500817 L 20.999224 5.500817 M 22.000207 5.500817 L 25.000096 5.500817 M 26.00108 5.500817 L 26.999002 5.500817 M 1.998905 6.498739 L 2.999889 6.498739 M 4.000872 6.498739 L 7.000761 6.498739 M 7.998684 6.498739 L 8.999667 6.498739 M 10.000651 6.498739 L 11.999556 6.498739 M 14.001523 6.498739 L 14.999445 6.498739 M 16.000429 6.498739 L 17.001412 6.498739 M 20.001301 6.498739 L 20.999224 6.498739 M 22.000207 6.498739 L 25.000096 6.498739 M 26.00108 6.498739 L 26.999002 6.498739 M 1.998905 7.499723 L 2.999889 7.499723 M 7.998684 7.499723 L 8.999667 7.499723 M 10.000651 7.499723 L 10.998573 7.499723 M 13.00054 7.499723 L 14.001523 7.499723 M 14.999445 7.499723 L 16.000429 7.499723 M 17.999335 7.499723 L 19.000318 7.499723 M 20.001301 7.499723 L 20.999224 7.499723 M 26.00108 7.499723 L 26.999002 7.499723 M 1.998905 8.500706 L 8.999667 8.500706 M 10.000651 8.500706 L 10.998573 8.500706 M 11.999556 8.500706 L 13.00054 8.500706 M 14.001523 8.500706 L 14.999445 8.500706 M 16.000429 8.500706 L 17.001412 8.500706 M 17.999335 8.500706 L 19.000318 8.500706 M 20.001301 8.500706 L 26.999002 8.500706 M 10.000651 9.498629 L 14.999445 9.498629 M 16.000429 9.498629 L 17.999335 9.498629 M 1.998905 10.499612 L 2.999889 10.499612 M 4.000872 10.499612 L 8.999667 10.499612 M 13.00054 10.499612 L 14.999445 10.499612 M 17.001412 10.499612 L 19.000318 10.499612 M 20.001301 10.499612 L 25.000096 10.499612 M 1.998905 11.500596 L 4.998795 11.500596 M 8.999667 11.500596 L 10.000651 11.500596 M 13.00054 11.500596 L 14.001523 11.500596 M 14.999445 11.500596 L 16.000429 11.500596 M 20.999224 11.500596 L 22.000207 11.500596 M 25.000096 11.500596 L 26.00108 11.500596 M 1.998905 12.498518 L 2.999889 12.498518 M 4.998795 12.498518 L 5.999778 12.498518 M 7.000761 12.498518 L 8.999667 12.498518 M 10.998573 12.498518 L 11.999556 12.498518 M 13.00054 12.498518 L 14.001523 12.498518 M 17.001412 12.498518 L 17.999335 12.498518 M 20.001301 12.498518 L 23.999113 12.498518 M 25.000096 12.498518 L 26.999002 12.498518 M 1.998905 13.499501 L 2.999889 13.499501 M 4.000872 13.499501 L 4.998795 13.499501 M 5.999778 13.499501 L 7.000761 13.499501 M 8.999667 13.499501 L 11.999556 13.499501 M 14.999445 13.499501 L 17.999335 13.499501 M 19.000318 13.499501 L 22.000207 13.499501 M 26.00108 13.499501 L 26.999002 13.499501 M 5.999778 14.500485 L 7.000761 14.500485 M 7.998684 14.500485 L 10.000651 14.500485 M 14.001523 14.500485 L 16.000429 14.500485 M 17.001412 14.500485 L 19.000318 14.500485 M 20.001301 14.500485 L 23.001191 14.500485 M 23.999113 14.500485 L 26.999002 14.500485 M 1.998905 15.501468 L 4.998795 15.501468 M 7.000761 15.501468 L 7.998684 15.501468 M 8.999667 15.501468 L 10.998573 15.501468 M 11.999556 15.501468 L 13.00054 15.501468 M 14.999445 15.501468 L 16.000429 15.501468 M 17.001412 15.501468 L 17.999335 15.501468 M 20.999224 15.501468 L 22.000207 15.501468 M 23.001191 15.501468 L 23.999113 15.501468 M 25.000096 15.501468 L 26.00108 15.501468 M 1.998905 16.49939 L 2.999889 16.49939 M 4.998795 16.49939 L 7.000761 16.49939 M 7.998684 16.49939 L 8.999667 16.49939 M 10.000651 16.49939 L 10.998573 16.49939 M 11.999556 16.49939 L 14.999445 16.49939 M 17.001412 16.49939 L 20.001301 16.49939 M 20.999224 16.49939 L 23.999113 16.49939 M 25.000096 16.49939 L 26.999002 16.49939 M 1.998905 17.500374 L 2.999889 17.500374 M 8.999667 17.500374 L 11.999556 17.500374 M 13.00054 17.500374 L 14.001523 17.500374 M 17.999335 17.500374 L 19.000318 17.500374 M 20.999224 17.500374 L 23.001191 17.500374 M 26.00108 17.500374 L 26.999002 17.500374 M 1.998905 18.501357 L 2.999889 18.501357 M 4.000872 18.501357 L 4.998795 18.501357 M 7.000761 18.501357 L 8.999667 18.501357 M 11.999556 18.501357 L 14.001523 18.501357 M 17.999335 18.501357 L 23.001191 18.501357 M 23.999113 18.501357 L 25.000096 18.501357 M 10.000651 19.49928 L 10.998573 19.49928 M 11.999556 19.49928 L 13.00054 19.49928 M 14.001523 19.49928 L 16.000429 19.49928 M 17.001412 19.49928 L 19.000318 19.49928 M 22.000207 19.49928 L 23.999113 19.49928 M 1.998905 20.500263 L 8.999667 20.500263 M 10.998573 20.500263 L 13.00054 20.500263 M 14.999445 20.500263 L 17.001412 20.500263 M 17.999335 20.500263 L 19.000318 20.500263 M 20.001301 20.500263 L 20.999224 20.500263 M 22.000207 20.500263 L 23.001191 20.500263 M 23.999113 20.500263 L 26.999002 20.500263 M 1.998905 21.501246 L 2.999889 21.501246 M 7.998684 21.501246 L 8.999667 21.501246 M 10.000651 21.501246 L 13.00054 21.501246 M 14.001523 21.501246 L 16.000429 21.501246 M 17.001412 21.501246 L 19.000318 21.501246 M 22.000207 21.501246 L 23.999113 21.501246 M 1.998905 22.499169 L 2.999889 22.499169 M 4.000872 22.499169 L 7.000761 22.499169 M 7.998684 22.499169 L 8.999667 22.499169 M 10.000651 22.499169 L 10.998573 22.499169 M 14.001523 22.499169 L 14.999445 22.499169 M 16.000429 22.499169 L 23.001191 22.499169 M 23.999113 22.499169 L 26.00108 22.499169 M 1.998905 23.500152 L 2.999889 23.500152 M 4.000872 23.500152 L 7.000761 23.500152 M 7.998684 23.500152 L 8.999667 23.500152 M 10.000651 23.500152 L 11.999556 23.500152 M 19.000318 23.500152 L 20.999224 23.500152 M 22.000207 23.500152 L 25.000096 23.500152 M 26.00108 23.500152 L 26.999002 23.500152 M 1.998905 24.501136 L 2.999889 24.501136 M 4.000872 24.501136 L 7.000761 24.501136 M 7.998684 24.501136 L 8.999667 24.501136 M 10.000651 24.501136 L 11.999556 24.501136 M 13.00054 24.501136 L 14.999445 24.501136 M 23.001191 24.501136 L 25.000096 24.501136 M 26.00108 24.501136 L 26.999002 24.501136 M 1.998905 25.499058 L 2.999889 25.499058 M 7.998684 25.499058 L 8.999667 25.499058 M 10.998573 25.499058 L 11.999556 25.499058 M 13.00054 25.499058 L 14.001523 25.499058 M 16.000429 25.499058 L 20.001301 25.499058 M 20.999224 25.499058 L 23.999113 25.499058 M 26.00108 25.499058 L 26.999002 25.499058 M 1.998905 26.500041 L 8.999667 26.500041 M 10.000651 26.500041 L 11.999556 26.500041 M 13.00054 26.500041 L 14.001523 26.500041 M 19.000318 26.500041 L 26.999002 26.500041 " stroke="#ee7f1d" stroke-width="1" stroke-opacity="1" stroke-miterlimit="4"/></svg>